<svg width="24" height="24" viewBox="0 0 24 24" fill="none" xmlns="http://www.w3.org/2000/svg">
<path fill-rule="evenodd" clip-rule="evenodd" d="M12 7.75C9.65279 7.75 7.75 9.65279 7.75 12C7.75 14.3472 9.65279 16.25 12 16.25C14.3472 16.25 16.25 14.3472 16.25 12C16.25 9.65279 14.3472 7.75 12 7.75ZM6.25 12C6.25 8.82436 8.82436 6.25 12 6.25C15.1756 6.25 17.75 8.82436 17.75 12C17.75 15.1756 15.1756 17.75 12 17.75C8.82436 17.75 6.25 15.1756 6.25 12Z" fill="#808080"/>
<path fill-rule="evenodd" clip-rule="evenodd" d="M12 1.25C12.4142 1.25 12.75 1.58579 12.75 2V4C12.75 4.41421 12.4142 4.75 12 4.75C11.5858 4.75 11.25 4.41421 11.25 4V2C11.25 1.58579 11.5858 1.25 12 1.25Z" fill="#808080"/>
<path fill-rule="evenodd" clip-rule="evenodd" d="M12 19.25C12.4142 19.25 12.75 19.5858 12.75 20V22C12.75 22.4142 12.4142 22.75 12 22.75C11.5858 22.75 11.25 22.4142 11.25 22V20C11.25 19.5858 11.5858 19.25 12 19.25Z" fill="#808080"/>
<path fill-rule="evenodd" clip-rule="evenodd" d="M21.3097 6.62498C21.5168 6.9837 21.3939 7.4424 21.0351 7.6495L19.3031 8.6495C18.9444 8.85661 18.4857 8.7337 18.2786 8.37498C18.0715 8.01626 18.1944 7.55757 18.5531 7.35046L20.2851 6.35046C20.6439 6.14336 21.1026 6.26626 21.3097 6.62498Z" fill="#808080"/>
<path fill-rule="evenodd" clip-rule="evenodd" d="M5.72128 15.625C5.92839 15.9837 5.80548 16.4424 5.44676 16.6495L3.71471 17.6495C3.35599 17.8566 2.8973 17.7337 2.69019 17.375C2.48309 17.0163 2.60599 16.5576 2.96471 16.3505L4.69676 15.3505C5.05548 15.1434 5.51418 15.2663 5.72128 15.625Z" fill="#808080"/>
<path fill-rule="evenodd" clip-rule="evenodd" d="M2.69034 6.62508C2.89744 6.26636 3.35614 6.14345 3.71486 6.35056L5.44691 7.35056C5.80563 7.55767 5.92853 8.01636 5.72143 8.37508C5.51432 8.7338 5.05563 8.8567 4.69691 8.6496L2.96486 7.6496C2.60614 7.44249 2.48323 6.9838 2.69034 6.62508Z" fill="#808080"/>
<path fill-rule="evenodd" clip-rule="evenodd" d="M18.2787 15.625C18.4858 15.2663 18.9445 15.1434 19.3032 15.3505L21.0353 16.3505C21.394 16.5576 21.5169 17.0163 21.3098 17.375C21.1027 17.7337 20.644 17.8566 20.2853 17.6495L18.5532 16.6495C18.1945 16.4424 18.0716 15.9837 18.2787 15.625Z" fill="#808080"/>
</svg>
